<mxfile host="app.diagrams.net" agent="Mozilla/5.0 (Windows NT 10.0; Win64; x64) AppleWebKit/537.36 (KHTML, like Gecko) Chrome/131.0.0.0 Safari/537.36" version="24.8.4" pages="2">
  <diagram name="Страница — 1" id="f4a93YYOFAJepyqiFl2U">
    <mxGraphModel dx="2704" dy="565" grid="1" gridSize="10" guides="1" tooltips="1" connect="1" arrows="1" fold="1" page="1" pageScale="2" pageWidth="827" pageHeight="1169" math="0" shadow="0">
      <root>
        <mxCell id="0" />
        <mxCell id="1" parent="0" />
        <mxCell id="zGQ3k-xxuvM1UmHYC5J--5" value="API&lt;div&gt;Gateway&lt;/div&gt;" style="rounded=0;whiteSpace=wrap;html=1;" vertex="1" parent="1">
          <mxGeometry x="-1380" y="270" width="50" height="280" as="geometry" />
        </mxCell>
        <mxCell id="zGQ3k-xxuvM1UmHYC5J--19" value="Sensor&lt;div&gt;Receiver&lt;/div&gt;&lt;div&gt;App&lt;/div&gt;" style="strokeWidth=2;html=1;shape=mxgraph.flowchart.multi-document;whiteSpace=wrap;" vertex="1" parent="1">
          <mxGeometry x="-1280" y="422.5" width="120" height="85" as="geometry" />
        </mxCell>
        <mxCell id="zGQ3k-xxuvM1UmHYC5J--24" value="Message&lt;div&gt;Queue&lt;/div&gt;" style="strokeWidth=2;html=1;shape=mxgraph.flowchart.direct_data;whiteSpace=wrap;" vertex="1" parent="1">
          <mxGeometry x="-1090" y="442.5" width="100" height="45" as="geometry" />
        </mxCell>
        <mxCell id="zGQ3k-xxuvM1UmHYC5J--29" style="edgeStyle=orthogonalEdgeStyle;rounded=0;orthogonalLoop=1;jettySize=auto;html=1;entryX=0;entryY=0.5;entryDx=0;entryDy=0;entryPerimeter=0;" edge="1" parent="1" source="zGQ3k-xxuvM1UmHYC5J--19" target="zGQ3k-xxuvM1UmHYC5J--24">
          <mxGeometry relative="1" as="geometry" />
        </mxCell>
        <mxCell id="Nz5yUgBbJEOZinr4_opJ-6" value="&lt;b&gt;Push&lt;/b&gt;" style="edgeLabel;html=1;align=center;verticalAlign=middle;resizable=0;points=[];" vertex="1" connectable="0" parent="zGQ3k-xxuvM1UmHYC5J--29">
          <mxGeometry x="-0.4514" y="-5" relative="1" as="geometry">
            <mxPoint x="11" y="-17" as="offset" />
          </mxGeometry>
        </mxCell>
        <mxCell id="Nz5yUgBbJEOZinr4_opJ-42" style="edgeStyle=orthogonalEdgeStyle;rounded=0;orthogonalLoop=1;jettySize=auto;html=1;entryX=0.5;entryY=1;entryDx=0;entryDy=0;" edge="1" parent="1" source="zGQ3k-xxuvM1UmHYC5J--33" target="Nz5yUgBbJEOZinr4_opJ-41">
          <mxGeometry relative="1" as="geometry" />
        </mxCell>
        <mxCell id="Nz5yUgBbJEOZinr4_opJ-43" value="&lt;b&gt;Update Status&lt;/b&gt;" style="edgeLabel;html=1;align=center;verticalAlign=middle;resizable=0;points=[];" vertex="1" connectable="0" parent="Nz5yUgBbJEOZinr4_opJ-42">
          <mxGeometry x="-0.4361" y="-1" relative="1" as="geometry">
            <mxPoint as="offset" />
          </mxGeometry>
        </mxCell>
        <mxCell id="zGQ3k-xxuvM1UmHYC5J--33" value="Data Processor&lt;div&gt;App&lt;/div&gt;" style="strokeWidth=2;html=1;shape=mxgraph.flowchart.multi-document;whiteSpace=wrap;" vertex="1" parent="1">
          <mxGeometry x="-887" y="410" width="120" height="97.5" as="geometry" />
        </mxCell>
        <mxCell id="zGQ3k-xxuvM1UmHYC5J--34" value="Message&lt;div&gt;Queue&lt;/div&gt;&lt;div&gt;(Kafka)&lt;/div&gt;" style="strokeWidth=2;html=1;shape=mxgraph.flowchart.direct_data;whiteSpace=wrap;" vertex="1" parent="1">
          <mxGeometry x="-1080" y="452.5" width="100" height="45" as="geometry" />
        </mxCell>
        <mxCell id="Nz5yUgBbJEOZinr4_opJ-3" style="edgeStyle=orthogonalEdgeStyle;rounded=0;orthogonalLoop=1;jettySize=auto;html=1;entryX=1.008;entryY=0.296;entryDx=0;entryDy=0;entryPerimeter=0;" edge="1" parent="1" source="zGQ3k-xxuvM1UmHYC5J--33" target="zGQ3k-xxuvM1UmHYC5J--34">
          <mxGeometry relative="1" as="geometry" />
        </mxCell>
        <mxCell id="Nz5yUgBbJEOZinr4_opJ-4" value="&lt;b&gt;Poll&lt;/b&gt;" style="edgeLabel;html=1;align=center;verticalAlign=middle;resizable=0;points=[];" vertex="1" connectable="0" parent="Nz5yUgBbJEOZinr4_opJ-3">
          <mxGeometry x="0.12" relative="1" as="geometry">
            <mxPoint y="-13" as="offset" />
          </mxGeometry>
        </mxCell>
        <mxCell id="Nz5yUgBbJEOZinr4_opJ-9" value="&lt;div&gt;&lt;br&gt;&lt;/div&gt;" style="strokeWidth=2;html=1;shape=mxgraph.flowchart.database;whiteSpace=wrap;" vertex="1" parent="1">
          <mxGeometry x="-650" y="330" width="90" height="80" as="geometry" />
        </mxCell>
        <mxCell id="Nz5yUgBbJEOZinr4_opJ-11" value="" style="edgeStyle=elbowEdgeStyle;elbow=horizontal;endArrow=classic;html=1;curved=0;rounded=0;endSize=8;startSize=8;entryX=-0.022;entryY=0.617;entryDx=0;entryDy=0;entryPerimeter=0;" edge="1" parent="1" target="Nz5yUgBbJEOZinr4_opJ-9">
          <mxGeometry width="50" height="50" relative="1" as="geometry">
            <mxPoint x="-767" y="460" as="sourcePoint" />
            <mxPoint x="-660" y="380" as="targetPoint" />
          </mxGeometry>
        </mxCell>
        <mxCell id="Nz5yUgBbJEOZinr4_opJ-12" value="&lt;b&gt;insert measurements&lt;/b&gt;" style="edgeLabel;html=1;align=center;verticalAlign=middle;resizable=0;points=[];" vertex="1" connectable="0" parent="Nz5yUgBbJEOZinr4_opJ-11">
          <mxGeometry x="0.3283" relative="1" as="geometry">
            <mxPoint y="20" as="offset" />
          </mxGeometry>
        </mxCell>
        <mxCell id="Nz5yUgBbJEOZinr4_opJ-13" value="&lt;div&gt;&lt;br&gt;&lt;/div&gt;Time&amp;nbsp;&lt;span style=&quot;background-color: initial;&quot;&gt;Series&amp;nbsp;&lt;/span&gt;&lt;span style=&quot;background-color: initial;&quot;&gt;DB&lt;/span&gt;&lt;div&gt;(InfluxDB)&lt;/div&gt;" style="strokeWidth=2;html=1;shape=mxgraph.flowchart.database;whiteSpace=wrap;" vertex="1" parent="1">
          <mxGeometry x="-630" y="350" width="90" height="80" as="geometry" />
        </mxCell>
        <mxCell id="Nz5yUgBbJEOZinr4_opJ-15" value="Alert DB&lt;div&gt;(Postgres)&lt;/div&gt;" style="strokeWidth=2;html=1;shape=mxgraph.flowchart.database;whiteSpace=wrap;" vertex="1" parent="1">
          <mxGeometry x="-640" y="530" width="90" height="80" as="geometry" />
        </mxCell>
        <mxCell id="Nz5yUgBbJEOZinr4_opJ-16" value="" style="edgeStyle=elbowEdgeStyle;elbow=horizontal;endArrow=classic;html=1;curved=0;rounded=0;endSize=8;startSize=8;entryX=0;entryY=0.5;entryDx=0;entryDy=0;entryPerimeter=0;exitX=1.012;exitY=0.669;exitDx=0;exitDy=0;exitPerimeter=0;" edge="1" parent="1" source="zGQ3k-xxuvM1UmHYC5J--33" target="Nz5yUgBbJEOZinr4_opJ-15">
          <mxGeometry width="50" height="50" relative="1" as="geometry">
            <mxPoint x="-760" y="480" as="sourcePoint" />
            <mxPoint x="-777" y="530" as="targetPoint" />
          </mxGeometry>
        </mxCell>
        <mxCell id="Nz5yUgBbJEOZinr4_opJ-17" value="&lt;b&gt;insert alert&lt;/b&gt;&lt;div&gt;&lt;b&gt;update alert&lt;/b&gt;&lt;/div&gt;" style="edgeLabel;html=1;align=center;verticalAlign=middle;resizable=0;points=[];" vertex="1" connectable="0" parent="Nz5yUgBbJEOZinr4_opJ-16">
          <mxGeometry x="-0.138" y="1" relative="1" as="geometry">
            <mxPoint as="offset" />
          </mxGeometry>
        </mxCell>
        <mxCell id="Nz5yUgBbJEOZinr4_opJ-20" style="edgeStyle=orthogonalEdgeStyle;rounded=0;orthogonalLoop=1;jettySize=auto;html=1;exitX=0;exitY=0.5;exitDx=0;exitDy=0;" edge="1" parent="1" source="Nz5yUgBbJEOZinr4_opJ-18">
          <mxGeometry relative="1" as="geometry">
            <mxPoint x="-540" y="385" as="targetPoint" />
          </mxGeometry>
        </mxCell>
        <mxCell id="Nz5yUgBbJEOZinr4_opJ-18" value="&lt;div&gt;&lt;span style=&quot;font-weight: normal;&quot;&gt;&lt;br&gt;&lt;/span&gt;&lt;/div&gt;&lt;span style=&quot;font-weight: normal;&quot;&gt;Metrics Dashboard&lt;/span&gt;&lt;div&gt;&lt;span style=&quot;font-weight: normal;&quot;&gt;(Grafana)&lt;/span&gt;&lt;/div&gt;" style="label;whiteSpace=wrap;html=1;align=center;verticalAlign=bottom;spacingLeft=0;spacingBottom=4;imageAlign=center;imageVerticalAlign=top;image=img/clipart/Gear_128x128.png" vertex="1" parent="1">
          <mxGeometry x="-440" y="340" width="130" height="90" as="geometry" />
        </mxCell>
        <mxCell id="Nz5yUgBbJEOZinr4_opJ-22" value="" style="verticalLabelPosition=bottom;verticalAlign=top;html=1;shape=mxgraph.basic.donut;dx=25;" vertex="1" parent="1">
          <mxGeometry x="-1570" y="422.5" width="60" height="60" as="geometry" />
        </mxCell>
        <mxCell id="Nz5yUgBbJEOZinr4_opJ-23" value="sensors" style="verticalLabelPosition=bottom;verticalAlign=top;html=1;shape=mxgraph.basic.donut;dx=25;" vertex="1" parent="1">
          <mxGeometry x="-1560" y="432.5" width="60" height="60" as="geometry" />
        </mxCell>
        <mxCell id="Nz5yUgBbJEOZinr4_opJ-24" style="edgeStyle=orthogonalEdgeStyle;rounded=0;orthogonalLoop=1;jettySize=auto;html=1;entryX=-0.016;entryY=0.685;entryDx=0;entryDy=0;entryPerimeter=0;" edge="1" parent="1" source="Nz5yUgBbJEOZinr4_opJ-23" target="zGQ3k-xxuvM1UmHYC5J--5">
          <mxGeometry relative="1" as="geometry" />
        </mxCell>
        <mxCell id="Nz5yUgBbJEOZinr4_opJ-25" value="&lt;font style=&quot;font-size: 8px;&quot;&gt;POST&lt;/font&gt;&lt;div&gt;&lt;font style=&quot;font-size: 9px;&quot;&gt;/measurements&lt;/font&gt;&lt;/div&gt;" style="edgeLabel;html=1;align=center;verticalAlign=middle;resizable=0;points=[];" vertex="1" connectable="0" parent="Nz5yUgBbJEOZinr4_opJ-24">
          <mxGeometry x="-0.3394" y="-3" relative="1" as="geometry">
            <mxPoint as="offset" />
          </mxGeometry>
        </mxCell>
        <mxCell id="Nz5yUgBbJEOZinr4_opJ-30" value="" style="shape=actor;whiteSpace=wrap;html=1;" vertex="1" parent="1">
          <mxGeometry x="-1560" y="300" width="40" height="60" as="geometry" />
        </mxCell>
        <mxCell id="Nz5yUgBbJEOZinr4_opJ-31" value="user" style="text;html=1;align=center;verticalAlign=middle;resizable=0;points=[];autosize=1;strokeColor=none;fillColor=none;" vertex="1" parent="1">
          <mxGeometry x="-1565" y="358" width="50" height="30" as="geometry" />
        </mxCell>
        <mxCell id="Nz5yUgBbJEOZinr4_opJ-32" style="edgeStyle=orthogonalEdgeStyle;rounded=0;orthogonalLoop=1;jettySize=auto;html=1;entryX=0.032;entryY=0.214;entryDx=0;entryDy=0;entryPerimeter=0;" edge="1" parent="1" source="Nz5yUgBbJEOZinr4_opJ-30" target="zGQ3k-xxuvM1UmHYC5J--5">
          <mxGeometry relative="1" as="geometry" />
        </mxCell>
        <mxCell id="Nz5yUgBbJEOZinr4_opJ-33" value="GET /&lt;div&gt;GET /metrics&lt;/div&gt;" style="edgeLabel;html=1;align=center;verticalAlign=middle;resizable=0;points=[];" vertex="1" connectable="0" parent="Nz5yUgBbJEOZinr4_opJ-32">
          <mxGeometry x="-0.3931" relative="1" as="geometry">
            <mxPoint as="offset" />
          </mxGeometry>
        </mxCell>
        <mxCell id="Nz5yUgBbJEOZinr4_opJ-34" style="edgeStyle=orthogonalEdgeStyle;rounded=0;orthogonalLoop=1;jettySize=auto;html=1;exitX=1;exitY=0.75;exitDx=0;exitDy=0;entryX=0.007;entryY=0.679;entryDx=0;entryDy=0;entryPerimeter=0;" edge="1" parent="1" source="zGQ3k-xxuvM1UmHYC5J--5" target="zGQ3k-xxuvM1UmHYC5J--19">
          <mxGeometry relative="1" as="geometry" />
        </mxCell>
        <mxCell id="Nz5yUgBbJEOZinr4_opJ-35" value="Sensor&lt;div&gt;Data&lt;/div&gt;&lt;div&gt;App&lt;/div&gt;" style="strokeWidth=2;html=1;shape=mxgraph.flowchart.multi-document;whiteSpace=wrap;" vertex="1" parent="1">
          <mxGeometry x="-1160" y="265" width="130" height="85" as="geometry" />
        </mxCell>
        <mxCell id="Nz5yUgBbJEOZinr4_opJ-36" style="edgeStyle=orthogonalEdgeStyle;rounded=0;orthogonalLoop=1;jettySize=auto;html=1;exitX=1;exitY=0.25;exitDx=0;exitDy=0;entryX=0;entryY=0.5;entryDx=0;entryDy=0;entryPerimeter=0;" edge="1" parent="1" source="zGQ3k-xxuvM1UmHYC5J--5" target="Nz5yUgBbJEOZinr4_opJ-35">
          <mxGeometry relative="1" as="geometry" />
        </mxCell>
        <mxCell id="Nz5yUgBbJEOZinr4_opJ-40" value="Status&lt;div&gt;Cache&lt;/div&gt;&lt;div&gt;(Redis)&lt;/div&gt;" style="shape=datastore;whiteSpace=wrap;html=1;" vertex="1" parent="1">
          <mxGeometry x="-857" y="170" width="107" height="80" as="geometry" />
        </mxCell>
        <mxCell id="Nz5yUgBbJEOZinr4_opJ-41" value="Status&lt;div&gt;Cache&lt;/div&gt;&lt;div&gt;(Redis)&lt;/div&gt;" style="shape=datastore;whiteSpace=wrap;html=1;" vertex="1" parent="1">
          <mxGeometry x="-847" y="180" width="107" height="80" as="geometry" />
        </mxCell>
        <mxCell id="Nz5yUgBbJEOZinr4_opJ-48" value="" style="edgeStyle=elbowEdgeStyle;elbow=horizontal;endArrow=classic;html=1;curved=0;rounded=0;endSize=8;startSize=8;" edge="1" parent="1">
          <mxGeometry width="50" height="50" relative="1" as="geometry">
            <mxPoint x="-1030" y="290" as="sourcePoint" />
            <mxPoint x="-860" y="210" as="targetPoint" />
          </mxGeometry>
        </mxCell>
        <mxCell id="Nz5yUgBbJEOZinr4_opJ-49" value="&lt;b&gt;retrieve status&lt;/b&gt;" style="edgeLabel;html=1;align=center;verticalAlign=middle;resizable=0;points=[];" vertex="1" connectable="0" parent="Nz5yUgBbJEOZinr4_opJ-48">
          <mxGeometry x="0.1792" relative="1" as="geometry">
            <mxPoint as="offset" />
          </mxGeometry>
        </mxCell>
        <mxCell id="Nz5yUgBbJEOZinr4_opJ-50" style="edgeStyle=orthogonalEdgeStyle;rounded=0;orthogonalLoop=1;jettySize=auto;html=1;entryX=0.5;entryY=0;entryDx=0;entryDy=0;entryPerimeter=0;" edge="1" parent="1" source="Nz5yUgBbJEOZinr4_opJ-35" target="Nz5yUgBbJEOZinr4_opJ-9">
          <mxGeometry relative="1" as="geometry" />
        </mxCell>
        <mxCell id="Nz5yUgBbJEOZinr4_opJ-51" value="&lt;b&gt;retrieve metrics&lt;/b&gt;" style="edgeLabel;html=1;align=center;verticalAlign=middle;resizable=0;points=[];" vertex="1" connectable="0" parent="Nz5yUgBbJEOZinr4_opJ-50">
          <mxGeometry x="-0.4699" relative="1" as="geometry">
            <mxPoint as="offset" />
          </mxGeometry>
        </mxCell>
      </root>
    </mxGraphModel>
  </diagram>
  <diagram id="up2GhzZuT4ue4F9q_ZTG" name="Page-2">
    <mxGraphModel dx="1050" dy="565" grid="1" gridSize="10" guides="1" tooltips="1" connect="1" arrows="1" fold="1" page="1" pageScale="1" pageWidth="827" pageHeight="1169" math="0" shadow="0">
      <root>
        <mxCell id="0" />
        <mxCell id="1" parent="0" />
      </root>
    </mxGraphModel>
  </diagram>
</mxfile>
